<?xml version="1.0" encoding="UTF-8" standalone="no"?>
<svg xmlns="http://www.w3.org/2000/svg" version="1.2" baseProfile="tiny" viewBox="7 160 387 70" style="background:transparent">
<g stroke-width="2.00" fill="none" stroke-linecap="butt">
<path stroke="#828b8e" vector-effect="non-scaling-stroke" d="
  M 156.13 207.45
  L 164.06 232.05
  A 0.52 0.50 -8.4 0 0 164.55 232.40
  L 184.56 232.40
  A 0.39 0.38 8.0 0 0 184.93 232.13
  L 200.93 180.58
  A 0.46 0.45 -81.2 0 1 201.36 180.26
  L 218.82 180.26
  A 0.62 0.62 0.0 0 0 219.44 179.64
  L 219.44 169.13
  A 0.63 0.62 90.0 0 0 218.82 168.50
  L 188.11 168.50
  A 0.37 0.35 -81.1 0 0 187.77 168.76
  L 176.36 208.38
  A 0.31 0.31 0.0 0 1 175.76 208.38
  L 164.27 168.86
  A 0.50 0.49 -7.6 0 0 163.79 168.50
  L 144.03 168.50
  A 0.32 0.32 0.0 0 0 143.72 168.92
  L 148.62 184.26"
/>
<path stroke="#f9cf8d" vector-effect="non-scaling-stroke" d="
  M 148.62 184.26
  Q 140.26 183.99 134.83 187.29
  Q 117.46 197.86 118.97 219.70
  A 3.17 3.09 53.0 0 1 118.81 220.96
  C 118.08 223.15 114.72 227.94 112.20 228.51
  A 1.79 1.73 -41.6 0 1 111.26 228.47
  Q 109.21 227.81 109.63 225.92
  Q 114.81 202.55 115.14 201.13
  C 116.26 196.25 117.24 190.83 113.67 187.11
  C 109.95 183.24 102.78 184.05 98.38 186.44
  Q 92.54 189.60 88.61 195.68
  A 0.28 0.27 -23.0 0 1 88.11 195.48
  L 90.08 185.97
  A 0.92 0.92 0.0 0 0 89.18 184.87
  L 70.02 184.87
  A 0.54 0.54 0.0 0 1 69.50 184.47
  C 65.23 168.83 49.70 160.44 35.30 169.75
  Q 21.21 178.86 15.09 194.80
  C 11.13 205.11 12.06 218.58 19.47 226.88
  C 29.67 238.31 45.29 235.00 55.18 225.05
  C 64.96 215.21 71.04 203.65 70.39 189.34
  A 1.23 1.23 0.0 0 1 71.62 188.05
  L 76.89 188.05
  A 0.98 0.97 5.8 0 1 77.85 189.22
  L 69.13 231.42
  A 0.80 0.79 5.9 0 0 69.91 232.37
  L 79.26 232.37
  A 1.34 1.33 5.5 0 0 80.57 231.30
  Q 83.43 216.95 85.51 207.99
  Q 87.66 198.68 94.37 192.12
  C 96.65 189.89 101.26 187.91 103.91 190.37
  Q 105.51 191.86 104.88 194.32
  Q 99.34 215.74 97.68 224.90
  C 95.96 234.42 107.04 234.44 112.88 231.82
  C 115.79 230.52 118.66 226.78 120.22 224.21
  A 0.43 0.43 0.0 0 1 120.96 224.21
  Q 127.59 235.21 139.65 233.95
  C 148.11 233.06 154.00 227.74 157.83 220.31
  A 1.81 1.80 39.4 0 0 157.63 218.35
  L 157.60 218.32
  A 0.91 0.91 0.0 0 0 156.12 218.41
  C 152.05 224.90 147.03 231.73 138.25 230.97
  C 128.34 230.11 129.57 219.83 131.52 212.90
  A 0.75 0.75 0.0 0 1 132.21 212.36
  Q 138.16 212.09 142.49 212.25
  Q 150.35 212.53 156.13 207.45"
/>
<path stroke="#7c5a1c" vector-effect="non-scaling-stroke" d="
  M 148.62 184.26
  Q 152.32 185.34 153.29 185.71
  C 157.48 187.31 160.11 190.86 160.86 195.31
  Q 162.07 202.60 156.13 207.45"
/>
<path stroke="#828b8e" vector-effect="non-scaling-stroke" d="
  M 287.06 168.93
  A 0.43 0.43 0.0 0 0 286.63 168.50
  L 268.99 168.50
  A 0.43 0.43 0.0 0 0 268.56 168.93
  L 268.56 179.83
  A 0.43 0.43 0.0 0 0 268.99 180.26
  L 286.63 180.26
  A 0.43 0.43 0.0 0 0 287.06 179.83
  L 287.06 168.93"
/>
<path stroke="#828b8e" vector-effect="non-scaling-stroke" d="
  M 219.95 220.66
  Q 220.28 221.23 220.93 222.42
  C 223.82 227.77 228.65 231.09 234.63 232.38
  C 245.40 234.69 265.67 233.27 267.72 218.93
  C 269.02 209.89 263.51 203.85 254.88 201.91
  Q 250.18 200.86 243.49 200.28
  Q 240.89 200.05 238.52 198.99
  A 1.68 1.49 31.2 0 1 237.77 196.57
  C 238.66 195.52 239.95 195.25 241.63 194.97
  Q 248.12 193.89 251.57 198.51
  A 0.88 0.86 -23.2 0 0 252.43 198.84
  L 265.38 196.39
  A 0.37 0.37 0.0 0 0 265.65 195.89
  C 260.29 182.09 238.18 180.71 227.69 188.40
  C 221.11 193.24 219.55 202.51 224.57 208.87
  C 229.70 215.38 241.11 215.21 248.24 216.75
  Q 250.03 217.14 251.04 218.21
  A 1.44 1.43 46.3 0 1 251.00 220.24
  C 248.51 222.61 242.63 222.19 239.69 221.61
  Q 235.77 220.82 234.37 217.46
  A 0.78 0.78 0.0 0 0 233.56 216.99
  L 219.87 218.81
  A 0.38 0.38 0.0 0 1 219.44 218.43
  L 219.44 185.42
  A 0.63 0.63 0.0 0 0 218.81 184.79
  L 201.73 184.79
  A 0.76 0.76 0.0 0 0 200.97 185.55
  L 200.97 231.79
  A 0.62 0.61 90.0 0 0 201.58 232.41
  L 218.80 232.41
  A 0.61 0.61 0.0 0 0 219.41 231.80
  L 219.41 220.81
  A 0.29 0.29 0.0 0 1 219.95 220.66"
/>
<path stroke="#828b8e" vector-effect="non-scaling-stroke" d="
  M 340.15 208.59
  A 26.37 24.95 0.0 0 0 313.78 183.64
  A 26.37 24.95 0.0 0 0 287.41 208.59
  A 26.37 24.95 0.0 0 0 313.78 233.54
  A 26.37 24.95 0.0 0 0 340.15 208.59"
/>
<path stroke="#828b8e" vector-effect="non-scaling-stroke" d="
  M 358.24 190.43
  L 358.24 185.33
  A 0.56 0.56 0.0 0 0 357.68 184.77
  L 341.26 184.77
  A 0.44 0.44 0.0 0 0 340.82 185.21
  L 340.82 231.81
  A 0.60 0.59 90.0 0 0 341.41 232.41
  L 358.65 232.41
  A 0.62 0.61 -0.0 0 0 359.27 231.80
  L 359.27 202.12
  A 5.30 5.30 0.0 0 1 363.58 196.91
  L 364.24 196.79
  A 3.86 3.85 84.7 0 1 368.80 200.58
  L 368.80 232.05
  A 0.36 0.36 0.0 0 0 369.16 232.41
  L 386.74 232.41
  A 0.26 0.25 0.0 0 0 387.00 232.16
  Q 387.38 212.47 386.90 196.58
  C 386.58 186.46 377.75 182.86 368.82 184.10
  Q 362.11 185.04 358.77 190.58
  A 0.29 0.29 0.0 0 1 358.24 190.43"
/>
<path stroke="#828b8e" vector-effect="non-scaling-stroke" d="
  M 287.05 185.28
  A 0.49 0.49 0.0 0 0 286.56 184.79
  L 269.06 184.79
  A 0.49 0.49 0.0 0 0 268.57 185.28
  L 268.57 231.92
  A 0.49 0.49 0.0 0 0 269.06 232.41
  L 286.56 232.41
  A 0.49 0.49 0.0 0 0 287.05 231.92
  L 287.05 185.28"
/>
<path stroke="#f9cf8d" vector-effect="non-scaling-stroke" d="
  M 27.43 195.83
  C 25.12 204.05 18.33 225.48 28.56 229.83
  C 36.74 233.31 44.00 229.46 48.11 222.10
  Q 53.28 212.84 55.70 204.23
  C 58.01 196.00 64.81 174.57 54.57 170.22
  C 46.40 166.74 39.14 170.59 35.02 177.96
  Q 29.85 187.21 27.43 195.83"
/>
<path stroke="#f9cf8d" vector-effect="non-scaling-stroke" d="
  M 132.78 209.40
  C 139.51 209.51 147.53 209.07 150.20 201.50
  Q 152.18 195.90 150.40 190.44
  A 2.60 2.55 -75.9 0 0 149.88 189.55
  Q 146.79 186.14 142.47 188.02
  C 135.97 190.83 133.99 202.75 132.46 208.99
  A 0.33 0.33 0.0 0 0 132.78 209.40"
/>
<path stroke="#828b8e" vector-effect="non-scaling-stroke" d="
  M 307.36 208.83
  C 307.36 213.73 307.35 222.09 313.75 222.09
  C 320.16 222.10 320.16 213.74 320.16 208.83
  C 320.16 203.93 320.16 195.57 313.76 195.57
  C 307.36 195.57 307.36 203.93 307.36 208.83"
/>
</g>

<path fill="#f29e1b" d="
  M 148.62 184.26
  Q 152.32 185.34 153.29 185.71
  C 157.48 187.31 160.11 190.86 160.86 195.31
  Q 162.07 202.60 156.13 207.45
  Q 150.35 212.53 142.49 212.25
  Q 138.16 212.09 132.21 212.36
  A 0.75 0.75 0.0 0 0 131.52 212.90
  C 129.57 219.83 128.34 230.11 138.25 230.97
  C 147.03 231.73 152.05 224.90 156.12 218.41
  A 0.91 0.91 0.0 0 1 157.60 218.32
  L 157.63 218.35
  A 1.81 1.80 39.4 0 1 157.83 220.31
  C 154.00 227.74 148.11 233.06 139.65 233.95
  Q 127.59 235.21 120.96 224.21
  A 0.43 0.43 0.0 0 0 120.22 224.21
  C 118.66 226.78 115.79 230.52 112.88 231.82
  C 107.04 234.44 95.96 234.42 97.68 224.90
  Q 99.34 215.74 104.88 194.32
  Q 105.51 191.86 103.91 190.37
  C 101.26 187.91 96.65 189.89 94.37 192.12
  Q 87.66 198.68 85.51 207.99
  Q 83.43 216.95 80.57 231.30
  A 1.34 1.33 5.5 0 1 79.26 232.37
  L 69.91 232.37
  A 0.80 0.79 5.9 0 1 69.13 231.42
  L 77.85 189.22
  A 0.98 0.97 5.8 0 0 76.89 188.05
  L 71.62 188.05
  A 1.23 1.23 0.0 0 0 70.39 189.34
  C 71.04 203.65 64.96 215.21 55.18 225.05
  C 45.29 235.00 29.67 238.31 19.47 226.88
  C 12.06 218.58 11.13 205.11 15.09 194.80
  Q 21.21 178.86 35.30 169.75
  C 49.70 160.44 65.23 168.83 69.50 184.47
  A 0.54 0.54 0.0 0 0 70.02 184.87
  L 89.18 184.87
  A 0.92 0.92 0.0 0 1 90.08 185.97
  L 88.11 195.48
  A 0.28 0.27 -23.0 0 0 88.61 195.68
  Q 92.54 189.60 98.38 186.44
  C 102.78 184.05 109.95 183.24 113.67 187.11
  C 117.24 190.83 116.26 196.25 115.14 201.13
  Q 114.81 202.55 109.63 225.92
  Q 109.21 227.81 111.26 228.47
  A 1.79 1.73 -41.6 0 0 112.20 228.51
  C 114.72 227.94 118.08 223.15 118.81 220.96
  A 3.17 3.09 53.0 0 0 118.97 219.70
  Q 117.46 197.86 134.83 187.29
  Q 140.26 183.99 148.62 184.26
  Z
  M 27.43 195.83
  C 25.12 204.05 18.33 225.48 28.56 229.83
  C 36.74 233.31 44.00 229.46 48.11 222.10
  Q 53.28 212.84 55.70 204.23
  C 58.01 196.00 64.81 174.57 54.57 170.22
  C 46.40 166.74 39.14 170.59 35.02 177.96
  Q 29.85 187.21 27.43 195.83
  Z
  M 132.78 209.40
  C 139.51 209.51 147.53 209.07 150.20 201.50
  Q 152.18 195.90 150.40 190.44
  A 2.60 2.55 -75.9 0 0 149.88 189.55
  Q 146.79 186.14 142.47 188.02
  C 135.97 190.83 133.99 202.75 132.46 208.99
  A 0.33 0.33 0.0 0 0 132.78 209.40
  Z"
/>
<path fill="#05161d" d="
  M 156.13 207.45
  Q 162.07 202.60 160.86 195.31
  C 160.11 190.86 157.48 187.31 153.29 185.71
  Q 152.32 185.34 148.62 184.26
  L 143.72 168.92
  A 0.32 0.32 0.0 0 1 144.03 168.50
  L 163.79 168.50
  A 0.50 0.49 -7.6 0 1 164.27 168.86
  L 175.76 208.38
  A 0.31 0.31 0.0 0 0 176.36 208.38
  L 187.77 168.76
  A 0.37 0.35 -81.1 0 1 188.11 168.50
  L 218.82 168.50
  A 0.63 0.62 -90.0 0 1 219.44 169.13
  L 219.44 179.64
  A 0.62 0.62 0.0 0 1 218.82 180.26
  L 201.36 180.26
  A 0.46 0.45 -81.2 0 0 200.93 180.58
  L 184.93 232.13
  A 0.39 0.38 8.0 0 1 184.56 232.40
  L 164.55 232.40
  A 0.52 0.50 -8.4 0 1 164.06 232.05
  L 156.13 207.45
  Z"
/>
<rect fill="#05161d" x="268.56" y="168.50" width="18.50" height="11.76" rx="0.43"/>
<path fill="#ffffff" d="
  M 55.70 204.23
  Q 53.28 212.84 48.11 222.10
  C 44.00 229.46 36.74 233.31 28.56 229.83
  C 18.33 225.48 25.12 204.05 27.43 195.83
  Q 29.85 187.21 35.02 177.96
  C 39.14 170.59 46.40 166.74 54.57 170.22
  C 64.81 174.57 58.01 196.00 55.70 204.23
  Z"
/>
<path fill="#05161d" d="
  M 219.41 220.81
  L 219.41 231.80
  A 0.61 0.61 0.0 0 1 218.80 232.41
  L 201.58 232.41
  A 0.62 0.61 -90.0 0 1 200.97 231.79
  L 200.97 185.55
  A 0.76 0.76 0.0 0 1 201.73 184.79
  L 218.81 184.79
  A 0.63 0.63 0.0 0 1 219.44 185.42
  L 219.44 218.43
  A 0.38 0.38 0.0 0 0 219.87 218.81
  L 233.56 216.99
  A 0.78 0.78 0.0 0 1 234.37 217.46
  Q 235.77 220.82 239.69 221.61
  C 242.63 222.19 248.51 222.61 251.00 220.24
  A 1.44 1.43 46.3 0 0 251.04 218.21
  Q 250.03 217.14 248.24 216.75
  C 241.11 215.21 229.70 215.38 224.57 208.87
  C 219.55 202.51 221.11 193.24 227.69 188.40
  C 238.18 180.71 260.29 182.09 265.65 195.89
  A 0.37 0.37 0.0 0 1 265.38 196.39
  L 252.43 198.84
  A 0.88 0.86 -23.2 0 1 251.57 198.51
  Q 248.12 193.89 241.63 194.97
  C 239.95 195.25 238.66 195.52 237.77 196.57
  A 1.68 1.49 31.2 0 0 238.52 198.99
  Q 240.89 200.05 243.49 200.28
  Q 250.18 200.86 254.88 201.91
  C 263.51 203.85 269.02 209.89 267.72 218.93
  C 265.67 233.27 245.40 234.69 234.63 232.38
  C 228.65 231.09 223.82 227.77 220.93 222.42
  Q 220.28 221.23 219.95 220.66
  A 0.29 0.29 0.0 0 0 219.41 220.81
  Z"
/>
<path fill="#05161d" d="
  M 340.15 208.59
  A 26.37 24.95 0.0 0 1 313.78 233.54
  A 26.37 24.95 0.0 0 1 287.41 208.59
  A 26.37 24.95 0.0 0 1 313.78 183.64
  A 26.37 24.95 0.0 0 1 340.15 208.59
  Z
  M 307.36 208.83
  C 307.36 213.73 307.35 222.09 313.75 222.09
  C 320.16 222.10 320.16 213.74 320.16 208.83
  C 320.16 203.93 320.16 195.57 313.76 195.57
  C 307.36 195.57 307.36 203.93 307.36 208.83
  Z"
/>
<path fill="#05161d" d="
  M 358.77 190.58
  Q 362.11 185.04 368.82 184.10
  C 377.75 182.86 386.58 186.46 386.90 196.58
  Q 387.38 212.47 387.00 232.16
  A 0.26 0.25 -0.0 0 1 386.74 232.41
  L 369.16 232.41
  A 0.36 0.36 0.0 0 1 368.80 232.05
  L 368.80 200.58
  A 3.86 3.85 84.7 0 0 364.24 196.79
  L 363.58 196.91
  A 5.30 5.30 0.0 0 0 359.27 202.12
  L 359.27 231.80
  A 0.62 0.61 0.0 0 1 358.65 232.41
  L 341.41 232.41
  A 0.60 0.59 90.0 0 1 340.82 231.81
  L 340.82 185.21
  A 0.44 0.44 0.0 0 1 341.26 184.77
  L 357.68 184.77
  A 0.56 0.56 0.0 0 1 358.24 185.33
  L 358.24 190.43
  A 0.29 0.29 0.0 0 0 358.77 190.58
  Z"
/>
<rect fill="#05161d" x="268.57" y="184.79" width="18.48" height="47.62" rx="0.49"/>
<path fill="#ffffff" d="
  M 132.78 209.40
  A 0.33 0.33 0.0 0 1 132.46 208.99
  C 133.99 202.75 135.97 190.83 142.47 188.02
  Q 146.79 186.14 149.88 189.55
  A 2.60 2.55 -75.9 0 1 150.40 190.44
  Q 152.18 195.90 150.20 201.50
  C 147.53 209.07 139.51 209.51 132.78 209.40
  Z"
/>
<path fill="#ffffff" d="
  M 313.76 195.57
  C 320.16 195.57 320.16 203.93 320.16 208.83
  C 320.16 213.74 320.16 222.10 313.75 222.09
  C 307.35 222.09 307.36 213.73 307.36 208.83
  C 307.36 203.93 307.36 195.57 313.76 195.57
  Z"
/>
</svg>
